<svg width="48" height="48" viewBox="0 0 48 48" fill="none" xmlns="http://www.w3.org/2000/svg">
<path d="M44.5802 34.5801L39.1602 29.1601C38.4164 28.4101 37.9994 27.3964 38.0002 26.3401V18.5801C38.0579 14.8698 36.6789 11.2808 34.1518 8.56359C31.6247 5.84636 28.145 4.21123 24.4402 4.00008C22.565 3.94112 20.6971 4.25966 18.9474 4.93677C17.1978 5.61389 15.602 6.63578 14.2551 7.94172C12.9081 9.24766 11.8373 10.811 11.1064 12.5389C10.3755 14.2668 9.9993 16.124 10.0002 18.0001V26.3401C9.99576 27.3992 9.5714 28.4134 8.82023 29.1601L3.42023 34.5801C3.13939 34.8586 2.94744 35.2142 2.86867 35.6018C2.7899 35.9894 2.82784 36.3917 2.97769 36.7578C3.12754 37.1239 3.38258 37.4373 3.71054 37.6584C4.03851 37.8795 4.42468 37.9984 4.82023 38.0001H43.1802C43.5758 37.9984 43.9619 37.8795 44.2899 37.6584C44.6179 37.4373 44.8729 37.1239 45.0228 36.7578C45.1726 36.3917 45.2106 35.9894 45.1318 35.6018C45.053 35.2142 44.8611 34.8586 44.5802 34.5801Z" fill="#DC2292"/>
<path d="M16.2803 42C16.7408 43.6947 17.7463 45.1908 19.1415 46.2575C20.5367 47.3241 22.2441 47.902 24.0003 47.902C25.7565 47.902 27.4639 47.3241 28.8591 46.2575C30.2543 45.1908 31.2597 43.6947 31.7203 42H16.2803Z" fill="#DC2292"/>
</svg>
